<svg width="16" height="16" viewBox="0 0 16 16" fill="none" xmlns="http://www.w3.org/2000/svg">
<rect x="2.39999" y="2.40001" width="10.8" height="10.8" fill="#FF971D"/>
<path d="M7.992 0C3.576 0 0 3.584 0 8C0 12.416 3.576 16 7.992 16C12.416 16 16 12.416 16 8C16 3.584 12.416 0 7.992 0ZM10.576 12.312L8 10.76L5.424 12.312C5.3566 12.3529 5.27866 12.373 5.19989 12.3699C5.12112 12.3668 5.04501 12.3406 4.98104 12.2946C4.91706 12.2485 4.86806 12.1846 4.84014 12.1109C4.81221 12.0372 4.8066 11.9569 4.824 11.88L5.504 8.952L3.24 6.992C3.18119 6.93961 3.13897 6.87118 3.11855 6.79512C3.09812 6.71906 3.10037 6.63868 3.12502 6.56388C3.14967 6.48908 3.19564 6.42311 3.25729 6.3741C3.31894 6.32509 3.39357 6.29516 3.472 6.288L6.464 6.032L7.632 3.272C7.768 2.944 8.232 2.944 8.368 3.272L9.536 6.024L12.528 6.28C12.6067 6.28677 12.6817 6.31671 12.7435 6.36606C12.8052 6.4154 12.851 6.48193 12.8749 6.55725C12.8989 6.63257 12.9 6.7133 12.8781 6.78925C12.8562 6.8652 12.8124 6.93297 12.752 6.984L10.488 8.944L11.168 11.88C11.248 12.224 10.88 12.496 10.576 12.312Z" fill="#EDEDED"/>
</svg>
