<svg width="16" height="16" viewBox="0 0 16 16" fill="none" xmlns="http://www.w3.org/2000/svg">
<rect width="16" height="16" rx="8" fill="#FBFBFB"/>
<path d="M7.99337 1.33334C4.31337 1.33334 1.33337 4.32001 1.33337 8.00001C1.33337 11.68 4.31337 14.6667 7.99337 14.6667C11.68 14.6667 14.6667 11.68 14.6667 8.00001C14.6667 4.32001 11.68 1.33334 7.99337 1.33334ZM10.1467 11.5933L8.00004 10.3L5.85337 11.5933C5.79721 11.6274 5.73226 11.6442 5.66662 11.6416C5.60098 11.639 5.53755 11.6172 5.48424 11.5788C5.43093 11.5404 5.39009 11.4872 5.36682 11.4258C5.34355 11.3643 5.33887 11.2974 5.35337 11.2333L5.92004 8.79334L4.03337 7.16001C3.98437 7.11635 3.94919 7.05933 3.93216 6.99594C3.91514 6.93256 3.91701 6.86558 3.93755 6.80324C3.9581 6.74091 3.99641 6.68594 4.04778 6.64509C4.09916 6.60425 4.16135 6.57931 4.22671 6.57334L6.72004 6.36001L7.69337 4.06001C7.80671 3.78668 8.19337 3.78668 8.30671 4.06001L9.28004 6.35334L11.7734 6.56668C11.839 6.57232 11.9015 6.59727 11.9529 6.63839C12.0044 6.67951 12.0425 6.73495 12.0625 6.79772C12.0825 6.86048 12.0834 6.92776 12.0651 6.99105C12.0469 7.05435 12.0103 7.11082 11.96 7.15334L10.0734 8.78668L10.64 11.2333C10.7067 11.52 10.4 11.7467 10.1467 11.5933Z" fill="#1CDC5E"/>
</svg>
