<svg width="16" height="16" viewBox="0 0 16 16" fill="none" xmlns="http://www.w3.org/2000/svg">
<path d="M8.03216 4.76556e-05C3.64221 4.76556e-05 0.0643217 3.56004 0.0643217 7.92802C0.0643217 9.32802 0.434171 10.688 1.12563 11.888L0 16L4.22111 14.896C5.38693 15.528 6.69749 15.864 8.03216 15.864C12.4221 15.864 16 12.304 16 7.93602C16 5.81603 15.1719 3.82404 13.6683 2.32804C12.9312 1.58718 12.0532 0.999779 11.0855 0.600087C10.1179 0.200395 9.07989 -0.00358408 8.03216 4.76556e-05ZM8.0402 1.33604C9.80904 1.33604 11.4653 2.02404 12.7196 3.27204C13.3352 3.88432 13.8232 4.61149 14.1557 5.41184C14.4882 6.21219 14.6587 7.06998 14.6573 7.93602C14.6573 11.568 11.6824 14.52 8.03216 14.52C6.84221 14.52 5.67638 14.208 4.66332 13.6L4.42211 13.464L1.91357 14.12L2.5809 11.688L2.4201 11.432C1.75593 10.383 1.40463 9.16788 1.40704 7.92802C1.41508 4.29603 4.38191 1.33604 8.0402 1.33604ZM5.21005 4.26403C5.08141 4.26403 4.86432 4.31203 4.6794 4.51203C4.50251 4.71203 3.9799 5.20003 3.9799 6.16803C3.9799 7.14403 4.69548 8.08002 4.78392 8.21602C4.89648 8.35202 6.19899 10.352 8.201 11.2C8.67538 11.416 9.04523 11.536 9.33467 11.624C9.80904 11.776 10.2432 11.752 10.5889 11.704C10.9749 11.648 11.7628 11.224 11.9317 10.76C12.1005 10.296 12.1005 9.90402 12.0523 9.81602C11.996 9.73602 11.8673 9.68802 11.6663 9.60002C11.4653 9.48802 10.4844 9.00802 10.3075 8.94402C10.1226 8.88002 10.01 8.84802 9.85729 9.04002C9.72864 9.24002 9.34271 9.68802 9.23015 9.81602C9.10955 9.95202 8.99698 9.96802 8.80402 9.87202C8.59497 9.76802 7.95176 9.56002 7.19598 8.88802C6.601 8.36002 6.20703 7.71202 6.08643 7.51203C5.98995 7.32003 6.07839 7.20003 6.17487 7.11203C6.26332 7.02403 6.39196 6.88003 6.47236 6.76003C6.57688 6.64803 6.60905 6.56003 6.67337 6.43203C6.73769 6.29603 6.70553 6.18403 6.65729 6.08803C6.60904 6.00003 6.20704 5.00803 6.03819 4.61603C5.87739 4.23204 5.71658 4.28004 5.58794 4.27204C5.47538 4.27204 5.34673 4.26403 5.21005 4.26403Z" fill="#373737"/>
</svg>
